<svg width="24" height="20" viewBox="0 0 24 20" fill="none" xmlns="http://www.w3.org/2000/svg"><path d="M21.516 5.125c.937-.703 1.78-1.547 2.437-2.531a9.225 9.225 0 0 1-2.812.75A4.809 4.809 0 0 0 23.297.625c-.938.563-2.016.984-3.094 1.219a4.922 4.922 0 0 0-3.61-1.547 4.921 4.921 0 0 0-4.921 4.922c0 .375.047.75.14 1.125a14.28 14.28 0 0 1-10.17-5.157C1.22 1.891.985 2.734.985 3.672c0 1.687.844 3.187 2.204 4.078-.797-.047-1.594-.234-2.25-.61v.048a4.928 4.928 0 0 0 3.937 4.828c-.375.093-.844.187-1.266.187-.328 0-.609-.047-.937-.094.61 1.97 2.437 3.375 4.594 3.422a9.895 9.895 0 0 1-6.094 2.11c-.422 0-.797-.047-1.172-.094 2.156 1.406 4.734 2.203 7.547 2.203 9.047 0 13.969-7.453 13.969-13.969v-.656z" fill="url(#a)"/><defs><linearGradient id="a" x1="12" y1="0" x2="12" y2="24" gradientUnits="userSpaceOnUse"><stop stop-color="#BC9CFF"/><stop offset="1" stop-color="#8BA4F9"/></linearGradient></defs></svg>